<svg width="8" height="9" viewBox="0 0 8 9" fill="none" xmlns="http://www.w3.org/2000/svg">
<path d="M0.665922 8.85614C0.497922 8.85614 0.341922 8.78414 0.197922 8.64014C0.0659219 8.48414 -7.80821e-05 8.32214 -7.80821e-05 8.15414C-7.80821e-05 8.02214 0.0299219 7.91414 0.089922 7.83014C0.161922 7.74614 0.269922 7.66214 0.413922 7.57814L6.76792 4.05014L6.82192 4.98614L0.377922 1.29614C0.269922 1.22414 0.185922 1.14614 0.125922 1.06214C0.0659219 0.96614 0.0359219 0.85214 0.0359219 0.72014C0.0359219 0.52814 0.101922 0.36014 0.233922 0.21614C0.377922 0.0721403 0.527922 0.00614047 0.683922 0.0181403C0.779922 0.0181403 0.875922 0.0421404 0.971922 0.0901405C1.06792 0.138141 1.16992 0.192141 1.27792 0.252141L7.45192 3.78014C7.58392 3.85214 7.68592 3.94814 7.75792 4.06814C7.84192 4.18814 7.88392 4.32014 7.88392 4.46414C7.88392 4.62014 7.85392 4.75814 7.79392 4.87814C7.73392 4.98614 7.63192 5.08214 7.48792 5.16614L1.24192 8.65814C1.14592 8.70614 1.04992 8.75414 0.953922 8.80214C0.857922 8.83814 0.761922 8.85614 0.665922 8.85614Z" fill="#10310B"/>
</svg>
